<svg width="26" height="19" viewBox="0 0 26 19" fill="none" xmlns="http://www.w3.org/2000/svg">
<g clip-path="url(#clip0_40_511)">
<path d="M14.5 9.5H22.375M6.625 9.5C5.72989 9.5 4.87145 9.14442 4.23851 8.51149C3.60558 7.87855 3.25 7.02011 3.25 6.125C3.25 5.22989 3.60558 4.37145 4.23851 3.73851C4.87145 3.10558 5.72989 2.75 6.625 2.75C7.52011 2.75 8.37855 3.10558 9.01149 3.73851C9.64442 4.37145 10 5.22989 10 6.125C10 7.02011 9.64442 7.87855 9.01149 8.51149C8.37855 9.14442 7.52011 9.5 6.625 9.5ZM11.125 16.25V14C11.125 11.4688 9.11463 9.5 6.5845 9.5H6.64525C4.114 9.5 2.125 11.4688 2.125 14V16.25H11.125ZM14.5 3.875H28H14.5ZM14.5 15.125H25.75H14.5Z" stroke="#0CCE84" stroke-width="2"/>
</g>
<defs>
<clipPath id="clip0_40_511">
<rect width="26" height="19" fill="white"/>
</clipPath>
</defs>
</svg>
