<svg width="15" height="14" viewBox="0 0 15 14" fill="none" xmlns="http://www.w3.org/2000/svg">
<path d="M0.663889 14H3.05029V4.10714H0.663889V14ZM1.87414 2.92857C2.70938 2.92857 3.34007 2.28571 3.34007 1.46429C3.34007 0.642857 2.70938 0 1.87414 0C1.02185 0 0.408203 0.642857 0.408203 1.46429C0.408203 2.28571 1.02185 2.92857 1.87414 2.92857Z" fill="#F9F9F9"/>
<path d="M12.0218 14H14.4082V8.19643C14.4082 5.46429 12.84 3.96429 10.6411 3.96429C9.43085 3.96429 8.40811 4.5 7.79446 5.33929V4.10714H5.40806V14H7.79446V8.53571C7.79446 6.94643 8.6297 6.08929 9.92518 6.08929C11.1866 6.08929 12.0218 6.94643 12.0218 8.53571V14Z" fill="#F9F9F9"/>
</svg>
