<svg width="45" height="30" viewBox="0 0 45 30" fill="#0CCE84" xmlns="http://www.w3.org/2000/svg">
<path d="M13.5833 15.7103C12.0733 16.7043 10.2811 17.1804 8.47686 17.0667C6.67266 16.953 4.95436 16.2556 3.58116 15.0799C2.20796 13.9041 1.25434 12.3137 0.864155 10.5485C0.473965 8.78333 0.668366 6.93914 1.41803 5.29412C2.1677 3.6491 3.43197 2.29247 5.02014 1.42887C6.60832 0.565271 8.43425 0.241543 10.2225 0.506517C12.0108 0.77149 13.6644 1.61079 14.9339 2.89783C16.2034 4.18486 17.0199 5.84981 17.2604 7.64154C18.0208 11.377 18.3166 15.8665 16.8291 19.9311C15.2333 24.2853 11.6958 27.8561 5.36037 29.5145C4.83243 29.6358 4.27799 29.5467 3.81463 29.2661C3.35128 28.9855 3.01543 28.5354 2.87832 28.0114C2.74121 27.4873 2.81361 26.9304 3.08017 26.4589C3.34674 25.9873 3.78649 25.6381 4.3062 25.4853C9.4312 24.1436 11.827 21.4645 12.9166 18.4978C13.2395 17.6124 13.4583 16.677 13.5833 15.7103Z" />
<path d="M39.9156 15.2938C38.4056 16.2878 36.6133 16.7639 34.8091 16.6502C33.0049 16.5365 31.2866 15.8391 29.9134 14.6634C28.5402 13.4876 27.5866 11.8972 27.1964 10.132C26.8062 8.36682 27.0006 6.52263 27.7503 4.87761C28.5 3.23259 29.7642 1.87596 31.3524 1.01237C32.9406 0.148767 34.7665 -0.174961 36.5548 0.0900127C38.343 0.354986 39.9966 1.19429 41.2662 2.48132C42.5357 3.76835 43.3522 5.43331 43.5926 7.22503C44.3531 10.9604 44.6489 15.45 43.1614 19.5146C41.5656 23.8688 38.0281 27.4396 31.6926 29.0979C31.1647 29.2193 30.6103 29.1302 30.1469 28.8496C29.6836 28.569 29.3477 28.1189 29.2106 27.5948C29.0735 27.0708 29.1459 26.5139 29.4124 26.0424C29.679 25.5708 30.1188 25.2216 30.6385 25.0688C35.7635 23.7271 38.1593 21.0479 39.2489 18.0813C39.5718 17.1959 39.7906 16.2604 39.9156 15.2938Z"/>
</svg>
