<svg width="20" height="15" viewBox="0 0 20 15" fill="none" xmlns="http://www.w3.org/2000/svg">
<path d="M19.7031 1.77577C18.9966 2.07692 18.2437 2.27654 17.4587 2.37346C18.2662 1.905 18.8826 1.16885 19.1723 0.281538C18.4194 0.717692 17.5882 1.02577 16.7023 1.19769C15.9874 0.458077 14.9686 0 13.8571 0C11.7006 0 9.96444 1.70077 9.96444 3.78577C9.96444 4.08577 9.99056 4.37423 10.0547 4.64885C6.81637 4.49538 3.95094 2.98731 2.026 0.69C1.68994 1.25654 1.49281 1.905 1.49281 2.60308C1.49281 3.91385 2.1875 5.07577 3.223 5.74846C2.59719 5.73692 1.98325 5.56038 1.46312 5.28231C1.46312 5.29385 1.46312 5.30885 1.46312 5.32385C1.46312 7.16308 2.81331 8.69077 4.58387 9.04269C4.26681 9.12692 3.92125 9.16731 3.56262 9.16731C3.31325 9.16731 3.0615 9.15346 2.82519 9.10269C3.32987 10.6015 4.762 11.7035 6.46488 11.7392C5.13963 12.7465 3.45694 13.3535 1.63531 13.3535C1.31588 13.3535 1.0095 13.3396 0.703125 13.3015C2.42856 14.3827 4.47344 15 6.67863 15C13.8464 15 17.7651 9.23077 17.7651 4.23C17.7651 4.06269 17.7592 3.90115 17.7509 3.74077C18.5239 3.20769 19.1735 2.54192 19.7031 1.77577Z" fill="#F9F9F9"/>
</svg>
