<svg width="215" height="212" viewBox="0 0 215 212" fill="none" xmlns="http://www.w3.org/2000/svg">
<path d="M168.61 156.863C162.555 164.067 155.139 170.009 146.787 174.347C138.435 178.686 129.31 181.337 119.934 182.15C110.557 182.962 101.113 181.92 92.139 179.082C83.1653 176.244 74.8384 171.667 67.6338 165.611C60.4292 159.555 54.4879 152.139 50.1492 143.787C45.8104 135.435 43.1592 126.311 42.3469 116.934C41.5346 107.558 42.577 98.1128 45.4148 89.1392C48.2526 80.1655 52.83 71.8387 58.8859 64.634L113.748 110.748L168.61 156.863Z" fill="url(#paint0_linear_40_209)"/>
<path d="M45.7564 55.6368C51.731 48.3647 59.0795 42.3406 67.3823 37.9085C75.685 33.4763 84.7795 30.7229 94.1463 29.8055C103.513 28.888 112.969 29.8245 121.974 32.5615C130.979 35.2984 139.357 39.7822 146.629 45.7568C153.901 51.7315 159.925 59.0799 164.357 67.3827C168.789 75.6854 171.542 84.7799 172.46 94.1467C173.377 103.514 172.441 112.969 169.704 121.974C166.967 130.979 162.483 139.357 156.509 146.629L101.132 101.133L45.7564 55.6368Z" fill="url(#paint1_linear_40_209)"/>
<circle cx="106" cy="105" r="17" fill="#191B1D"/>
<path d="M105.5 97L108.409 100.495L112.633 102.182L110.207 106.03L109.908 110.568L105.5 109.45L101.091 110.568L100.792 106.03L98.3668 102.182L102.59 100.495L105.5 97Z" fill="#6AEA5C"/>
<defs>
<linearGradient id="paint0_linear_40_209" x1="45.4998" y1="74" x2="171.5" y2="212" gradientUnits="userSpaceOnUse">
<stop stop-color="#6AEA5C"/>
<stop offset="0.400448" stop-color="#FD7566"/>
<stop offset="1" stop-color="#EF8F00"/>
</linearGradient>
<linearGradient id="paint1_linear_40_209" x1="169.789" y1="137.114" x2="42.2488" y2="0.535451" gradientUnits="userSpaceOnUse">
<stop stop-color="#6AEA5C"/>
<stop offset="0.400448" stop-color="#FD7566"/>
<stop offset="1" stop-color="#EF8F00"/>
</linearGradient>
</defs>
</svg>
