<svg width="216" height="58" viewBox="0 0 216 58" fill="none" xmlns="http://www.w3.org/2000/svg">
<path d="M1 52C10.4126 50.2458 18.1527 39.5486 29.3836 37.7505C35.3695 36.7922 40.1649 38.6574 45.5153 41.5556C50.8656 44.4537 49.8183 45.7052 61.8511 47.9395C71.781 49.7833 74.3785 29.9043 84.1088 30.6681C93.8391 31.4318 98.3395 7.53117 108.613 9.5263C118.886 11.5214 120.938 6.36309 130.595 16.1392C140.252 25.9154 149.174 3.12783 161.296 1.13269C173.418 -0.862442 176.575 20.3136 182.328 19.5155C188.081 18.7175 193.261 33.8068 198.192 36.0014C203.123 38.1961 204.521 30.2236 215 30.2236" stroke="#AE8EF9" stroke-width="2" stroke-linecap="round" stroke-linejoin="round"/>
<path d="M29.3836 39.1977C18.1527 41.0177 10.4126 51.845 1 53.6206V58H215V31.5792C204.521 31.5792 203.123 39.6487 198.192 37.4273C193.261 35.206 188.081 19.9331 182.328 20.7408C176.575 21.5486 173.418 0.114894 161.296 2.13431C149.174 4.15372 140.252 27.2186 130.595 17.3235C120.938 7.42835 118.886 12.6495 108.613 10.6301C98.3395 8.61064 93.8391 32.8022 84.1088 32.0291C74.3785 31.256 71.7811 51.3769 61.8511 49.5107C49.8183 47.2492 50.8656 45.9825 45.5153 43.0491C40.1649 40.1156 35.3695 38.2277 29.3836 39.1977Z" fill="url(#paint0_linear_40_217)"/>
<line x1="98.5" y1="18" x2="98.5" y2="51" stroke="#422F8A" stroke-opacity="0.87" stroke-dasharray="4.4 4.4"/>
<g filter="url(#filter0_dd_40_217)">
<rect x="95" y="13" width="8" height="8" rx="4" fill="#422F8A" fill-opacity="0.87"/>
<rect x="96" y="14" width="6" height="6" rx="3" stroke="white" stroke-width="2"/>
</g>
<defs>
<filter id="filter0_dd_40_217" x="89.6667" y="10.3333" width="18.6667" height="18.6667" filterUnits="userSpaceOnUse" color-interpolation-filters="sRGB">
<feFlood flood-opacity="0" result="BackgroundImageFix"/>
<feColorMatrix in="SourceAlpha" type="matrix" values="0 0 0 0 0 0 0 0 0 0 0 0 0 0 0 0 0 0 127 0" result="hardAlpha"/>
<feOffset dy="2.66667"/>
<feGaussianBlur stdDeviation="2.66667"/>
<feColorMatrix type="matrix" values="0 0 0 0 0.196487 0 0 0 0 0.196487 0 0 0 0 0.279476 0 0 0 0.06 0"/>
<feBlend mode="multiply" in2="BackgroundImageFix" result="effect1_dropShadow_40_217"/>
<feColorMatrix in="SourceAlpha" type="matrix" values="0 0 0 0 0 0 0 0 0 0 0 0 0 0 0 0 0 0 127 0" result="hardAlpha"/>
<feOffset dy="2.66667"/>
<feGaussianBlur stdDeviation="1.33333"/>
<feColorMatrix type="matrix" values="0 0 0 0 0.196487 0 0 0 0 0.196487 0 0 0 0 0.279476 0 0 0 0.06 0"/>
<feBlend mode="multiply" in2="effect1_dropShadow_40_217" result="effect2_dropShadow_40_217"/>
<feBlend mode="normal" in="SourceGraphic" in2="effect2_dropShadow_40_217" result="shape"/>
</filter>
<linearGradient id="paint0_linear_40_217" x1="108" y1="2" x2="108" y2="81.4247" gradientUnits="userSpaceOnUse">
<stop stop-color="#370DD2" stop-opacity="0.28"/>
<stop offset="0.67271" stop-color="white" stop-opacity="0"/>
</linearGradient>
</defs>
</svg>
